<svg version="1.1" id="Layer_1" xmlns="http://www.w3.org/2000/svg" xmlns:xlink="http://www.w3.org/1999/xlink" x="0px" y="0px"
	 width="100%" viewBox="0 0 496 496" enable-background="new 0 0 496 496" xml:space="preserve">
<path fill="#000000" opacity="1.000000" stroke="none" 
	d="
M187.792160,251.925415 
	C185.004059,257.473389 186.354599,263.064667 186.444046,268.451874 
	C186.527863,273.500519 184.574417,274.672791 179.983658,274.477509 
	C175.802475,274.299622 172.277466,274.462433 172.829514,268.571747 
	C173.216278,264.444733 172.906219,260.249664 172.857941,256.085541 
	C172.822479,253.026642 172.233047,250.262863 168.341629,250.231018 
	C164.380615,250.198593 163.277145,252.824341 163.213867,256.186340 
	C163.129242,260.682526 162.950287,265.187317 163.132690,269.675385 
	C163.348419,274.983765 159.793411,274.395996 156.422516,274.382355 
	C153.060226,274.368774 149.595917,274.971466 149.754471,269.632965 
	C149.991745,261.644073 149.783295,253.642654 149.817856,245.646790 
	C149.845535,239.242859 153.714310,236.646698 160.442352,239.467255 
	C163.165024,240.608688 164.955063,240.158310 167.268433,239.404968 
	C171.789536,237.932709 176.164658,238.477936 180.218307,240.964249 
	C181.812729,241.942200 183.072601,242.740524 185.200485,241.802917 
	C200.666748,234.988037 208.144089,239.434357 209.651093,256.511475 
	C212.981079,255.705566 215.827240,253.439865 219.384125,253.535538 
	C221.071075,253.580933 223.112732,252.878494 222.495087,250.667801 
	C221.878189,248.459778 219.597809,249.000305 218.275925,249.747849 
	C214.080734,252.120239 212.097214,250.417847 210.350983,246.527176 
	C208.950272,243.406387 209.838821,241.970856 212.679642,240.776947 
	C217.668655,238.680237 225.702911,238.031296 233.853821,239.308899 
	C235.101334,242.304718 233.221420,245.124527 233.222565,248.076218 
	C233.223709,251.030441 231.752930,253.878220 232.290207,256.998840 
	C233.906311,258.483887 235.809525,256.001465 237.608505,257.502472 
	C239.456024,260.468994 236.532959,263.705475 237.743027,267.580261 
	C239.433304,261.765533 240.949844,256.548523 242.382141,251.621323 
	C241.512360,249.690567 239.625473,251.018341 238.680817,249.767883 
	C238.325775,247.832153 238.724075,245.903046 239.384460,244.010223 
	C239.941544,242.413544 239.255966,239.794342 241.843033,239.735931 
	C244.620377,239.673203 243.400696,242.529221 244.414246,244.269394 
	C250.837402,238.760574 257.946198,236.739731 265.946075,240.505936 
	C268.386658,241.654922 269.582184,238.788696 271.896332,238.899811 
	C277.872650,239.186798 283.872681,239.027390 289.862457,238.967682 
	C292.866150,238.937729 294.048920,240.488892 294.049438,243.294907 
	C294.051117,252.290176 294.040649,261.285583 294.085632,270.280670 
	C294.100250,273.205322 292.781097,274.825775 289.852478,274.310303 
	C286.671326,273.750336 282.293304,276.532166 280.525787,271.132996 
	C279.931580,277.349121 277.227020,282.145233 271.606171,284.980865 
	C266.162598,287.727081 260.348633,287.623505 254.498016,287.040100 
	C253.512024,286.941803 252.548935,286.612152 251.575653,286.387726 
	C241.974594,284.173920 241.320740,282.418182 247.420364,274.101624 
	C252.835800,275.958374 258.500244,278.545502 264.427399,275.667480 
	C266.259827,274.777740 267.280884,272.959442 267.503479,270.350983 
	C259.017487,274.080414 251.262238,273.515076 244.165939,266.461151 
	C243.471390,269.241302 244.778015,272.150482 242.309311,273.683258 
	C240.186691,275.001160 237.714966,274.387939 235.455307,274.252502 
	C230.272644,273.941833 224.843048,275.944550 220.170456,274.851318 
	C213.964020,273.399231 208.156799,273.557495 202.121826,274.380096 
	C197.614853,274.994385 196.312744,272.902679 196.551620,268.635406 
	C196.801804,264.166016 196.805710,259.608551 196.207718,255.185501 
	C195.521133,250.107117 192.958801,249.198166 187.792160,251.925415 
M266.085388,251.434052 
	C260.913849,248.077499 255.406540,249.170013 254.386414,253.848495 
	C253.789886,256.584320 254.140717,259.246948 256.911957,260.757019 
	C259.713654,262.283722 262.735107,262.515686 265.300446,260.429077 
	C268.111572,258.142517 268.457031,255.167419 266.085388,251.434052 
z"/>
<path fill="#000000" opacity="1.000000" stroke="none" 
	d="
M356.475494,231.261505 
	C360.648407,227.436951 365.035706,229.336090 369.672455,229.364944 
	C369.514404,232.785217 367.574615,234.755585 366.315521,236.978546 
	C364.101959,240.886658 361.950806,244.856567 359.397491,248.539948 
	C354.991180,254.896637 352.194489,261.586853 353.377899,269.513092 
	C353.925964,273.183899 352.213562,274.419525 348.552856,274.435364 
	C339.921967,274.472717 339.301025,274.572205 340.080963,266.126648 
	C341.014679,256.015564 334.473206,249.448761 330.220551,241.735855 
	C329.415863,240.276337 327.780121,240.128174 326.241425,240.124557 
	C321.581024,240.113647 316.919159,240.187759 312.260712,240.092041 
	C309.166443,240.028488 308.286499,241.540863 308.294403,244.415588 
	C308.302246,247.257812 309.052917,248.816177 312.233276,248.698975 
	C316.222443,248.551971 320.225220,248.785980 324.215576,248.655579 
	C328.273346,248.522980 328.199493,251.207565 328.193146,253.997894 
	C328.186768,256.813751 328.149017,259.451355 324.143066,259.328430 
	C320.152344,259.205963 316.152740,259.394958 312.159973,259.309631 
	C309.400177,259.250671 308.155945,260.415527 308.335297,263.185150 
	C308.421143,264.511078 308.348419,265.847412 308.344299,267.179016 
	C308.321960,274.382019 308.321625,274.381989 301.358246,274.368835 
	C294.855865,274.356567 294.824829,274.356659 294.809296,267.629608 
	C294.783569,256.484497 294.802307,245.339279 294.802307,233.624603 
	C293.216766,234.476425 292.078308,235.225464 290.839874,235.728134 
	C286.844788,237.349655 281.928986,235.895447 280.382202,232.513779 
	C278.998901,229.489578 279.399689,226.645386 282.127167,224.443649 
	C285.354767,221.838242 291.180206,221.816193 293.435242,225.185806 
	C295.811218,228.736115 298.720001,229.039856 302.350647,228.989151 
	C311.834778,228.856674 321.327576,229.128860 330.805389,228.848663 
	C335.558563,228.708160 338.610199,230.218475 340.635101,234.645859 
	C342.276031,238.233673 344.670105,241.477036 347.103638,245.488998 
	C351.207642,241.116760 353.245728,236.006271 356.475494,231.261505 
z"/>
<path fill="#000000" opacity="1.000000" stroke="none" 
	d="
M142.992157,239.024597 
	C148.139145,238.335388 149.517014,240.497314 149.352692,244.998825 
	C149.055267,253.146286 149.023926,261.320038 149.322311,269.466705 
	C149.513290,274.680908 146.388107,274.420624 142.878418,274.411102 
	C139.363953,274.401581 136.307190,274.610748 136.530884,269.406525 
	C136.880905,261.263489 136.871429,253.084488 136.536224,244.940399 
	C136.344131,240.272812 138.018738,238.450836 142.992157,239.024597 
z"/>
<path fill="#000000" opacity="1.000000" stroke="none" 
	d="
M140.533096,222.964996 
	C145.238846,222.513351 149.160904,223.120743 150.227295,228.159073 
	C151.022644,231.916779 149.358017,234.704956 145.672882,235.982559 
	C141.700699,237.359680 137.249466,235.709930 135.841797,232.240707 
	C134.026077,227.765854 136.090073,224.907867 140.533096,222.964996 
z"/>
</svg>